<svg id="svg" version="1.1" xmlns="http://www.w3.org/2000/svg" xmlns:xlink="http://www.w3.org/1999/xlink" width="400" height="400" viewBox="0, 0, 400,400"><g id="svgg"><path id="path0" d="M256.893 119.997 C 256.596 120.468,256.394 120.493,255.941 120.117 C 255.212 119.512,239.433 119.406,239.806 120.009 C 239.955 120.250,238.891 120.400,237.024 120.400 C 235.275 120.400,234.000 120.231,234.000 120.000 C 234.000 119.780,233.280 119.600,232.400 119.600 C 231.067 119.600,230.800 119.733,230.800 120.400 C 230.800 120.840,230.620 121.200,230.400 121.200 C 230.180 121.200,230.000 121.560,230.000 122.000 C 230.000 122.440,229.820 122.800,229.600 122.800 C 229.380 122.800,229.200 123.239,229.200 123.776 C 229.200 124.313,229.020 124.864,228.800 125.000 C 228.580 125.136,228.400 125.519,228.400 125.852 C 228.400 127.232,227.355 127.600,223.429 127.600 C 219.867 127.600,219.600 127.656,219.600 128.400 C 219.600 128.840,219.420 129.200,219.200 129.200 C 218.980 129.200,218.800 129.560,218.800 130.000 C 218.800 130.440,218.620 130.800,218.400 130.800 C 218.180 130.800,218.000 131.340,218.000 132.000 C 218.000 132.660,217.820 133.200,217.600 133.200 C 217.380 133.200,217.200 133.560,217.200 134.000 C 217.200 134.440,217.020 134.800,216.800 134.800 C 216.580 134.800,216.400 135.160,216.400 135.600 C 216.400 136.317,216.133 136.400,213.824 136.400 C 212.407 136.400,211.136 136.580,211.000 136.800 C 210.864 137.020,210.403 137.200,209.976 137.200 C 209.467 137.200,209.200 137.475,209.200 138.000 C 209.200 138.440,209.020 138.800,208.800 138.800 C 208.569 138.800,208.400 140.068,208.400 141.805 C 208.400 146.120,209.375 147.565,212.300 147.587 L 214.000 147.600 214.000 202.256 C 214.000 253.840,214.039 256.942,214.700 257.443 C 215.791 258.272,231.425 258.232,231.745 257.400 C 232.055 256.592,236.498 256.554,237.161 257.354 C 237.891 258.232,265.643 258.295,266.891 257.421 C 268.010 256.638,271.271 256.621,273.400 257.388 C 275.496 258.143,288.788 258.252,289.520 257.520 C 289.889 257.151,290.000 244.347,290.000 202.320 L 290.000 147.600 291.818 147.600 C 294.860 147.600,295.600 146.501,295.600 141.990 C 295.600 139.524,295.433 138.190,295.085 137.871 C 293.923 136.809,292.700 136.400,290.685 136.400 C 288.463 136.400,287.600 135.930,287.600 134.720 C 287.600 134.324,287.420 134.000,287.200 134.000 C 286.980 134.000,286.800 133.640,286.800 133.200 C 286.800 132.760,286.620 132.400,286.400 132.400 C 286.180 132.400,286.000 132.180,286.000 131.912 C 286.000 131.644,285.595 130.567,285.100 129.519 L 284.200 127.614 280.300 127.607 C 276.669 127.600,276.400 127.545,276.400 126.800 C 276.400 126.360,276.220 126.000,276.000 126.000 C 275.780 126.000,275.600 125.640,275.600 125.200 C 275.600 124.760,275.465 124.399,275.300 124.397 C 274.941 124.393,274.000 122.456,274.000 121.720 C 274.000 121.434,273.820 121.200,273.600 121.200 C 273.380 121.200,273.200 120.840,273.200 120.400 C 273.200 119.717,272.933 119.600,271.376 119.600 C 270.263 119.600,269.649 119.756,269.800 120.000 C 269.959 120.258,268.404 120.400,265.424 120.400 C 262.881 120.400,260.800 120.238,260.800 120.040 C 260.800 119.380,257.307 119.342,256.893 119.997 M269.697 122.100 C 270.408 122.647,272.800 126.857,272.800 127.562 C 272.800 127.874,266.805 128.000,252.000 128.000 C 237.195 128.000,231.200 127.874,231.200 127.562 C 231.200 126.857,233.592 122.647,234.303 122.100 C 234.799 121.718,238.976 121.600,252.000 121.600 C 265.024 121.600,269.201 121.718,269.697 122.100 M156.000 181.853 C 156.000 182.214,157.652 183.600,158.082 183.600 C 158.279 183.600,157.956 183.150,157.362 182.600 C 156.239 181.559,156.000 181.428,156.000 181.853 M259.534 183.442 C 262.605 184.972,265.302 187.849,266.979 191.382 C 268.053 193.646,268.609 194.400,269.205 194.400 C 270.245 194.400,270.209 194.699,268.943 196.607 C 266.270 200.636,266.086 200.672,263.982 197.574 C 262.271 195.054,262.168 194.000,263.631 194.000 C 266.020 194.000,260.951 185.500,257.442 183.623 C 254.782 182.199,256.706 182.033,259.534 183.442 M249.287 184.261 C 249.606 184.450,246.908 189.886,246.313 190.254 C 246.106 190.382,245.661 190.094,245.325 189.614 L 244.714 188.742 243.719 189.671 C 241.453 191.787,239.200 196.984,239.200 200.094 C 239.200 202.715,238.519 202.495,238.178 199.763 C 237.618 195.281,238.655 191.367,241.426 187.511 C 242.494 186.024,242.751 185.345,242.550 184.545 L 242.290 183.507 245.645 183.799 C 247.490 183.959,249.129 184.167,249.287 184.261 M164.383 186.500 C 165.364 187.545,166.219 188.400,166.283 188.400 C 166.584 188.400,166.266 188.041,164.500 186.383 L 162.600 184.600 164.383 186.500 M164.832 193.100 C 164.810 193.713,164.553 194.000,164.024 194.000 C 163.033 194.000,162.570 194.731,163.179 195.335 C 163.536 195.690,163.584 195.634,163.381 195.100 C 163.179 194.568,163.320 194.400,163.970 194.400 C 164.874 194.400,165.414 193.572,165.069 192.713 C 164.956 192.431,164.849 192.605,164.832 193.100 M169.006 194.010 C 169.106 194.172,169.635 194.390,170.182 194.494 C 170.729 194.599,171.094 194.552,170.994 194.390 C 170.894 194.228,170.365 194.010,169.818 193.906 C 169.271 193.801,168.906 193.848,169.006 194.010 M138.509 197.600 C 138.509 198.590,138.587 198.995,138.682 198.500 C 138.778 198.005,138.778 197.195,138.682 196.700 C 138.587 196.205,138.509 196.610,138.509 197.600 M139.200 202.200 C 139.200 202.530,139.380 202.800,139.600 202.800 C 139.820 202.800,140.000 202.530,140.000 202.200 C 140.000 201.870,139.820 201.600,139.600 201.600 C 139.380 201.600,139.200 201.870,139.200 202.200 M147.337 205.898 C 150.295 206.010,150.835 206.131,150.641 206.637 C 150.509 206.980,150.580 207.136,150.805 206.997 C 152.284 206.083,151.077 205.603,147.500 205.682 L 143.800 205.765 147.337 205.898 M250.183 205.972 C 250.309 206.177,250.230 206.458,250.007 206.596 C 247.932 207.878,250.363 209.001,255.200 208.995 C 258.313 208.991,259.811 208.673,262.299 207.492 C 264.002 206.684,263.669 207.542,261.736 208.945 C 258.188 211.521,252.796 212.630,249.141 211.535 C 247.743 211.116,247.498 211.156,246.667 211.937 L 245.744 212.804 244.846 210.702 C 244.352 209.546,243.780 208.287,243.574 207.905 C 243.003 206.844,243.126 206.078,243.900 205.876 C 245.229 205.528,249.953 205.601,250.183 205.972 M163.400 207.433 C 162.444 207.879,162.402 207.941,163.197 207.738 C 164.122 207.503,164.152 207.539,163.620 208.242 C 163.223 208.768,163.339 208.727,164.001 208.111 C 165.204 206.991,164.954 206.709,163.400 207.433 " stroke="none" fill="#a3a918" fill-rule="evenodd"></path><path id="path1" d="M52.686 115.848 C 51.805 116.728,53.332 118.122,54.818 117.796 C 55.767 117.588,55.962 117.691,56.099 118.475 C 56.245 119.315,56.289 119.332,56.588 118.660 C 56.783 118.220,56.749 117.814,56.505 117.660 C 56.278 117.517,56.025 117.040,55.943 116.600 C 55.790 115.783,53.321 115.213,52.686 115.848 M152.200 116.000 C 152.064 116.220,151.595 116.400,151.158 116.400 C 150.299 116.400,148.726 117.773,148.293 118.901 C 148.050 119.535,147.260 119.600,139.813 119.600 C 131.867 119.600,131.600 119.626,131.600 120.400 C 131.600 120.840,131.420 121.200,131.200 121.200 C 130.980 121.200,130.800 121.560,130.800 122.000 C 130.800 122.440,130.620 122.800,130.400 122.800 C 130.180 122.800,130.000 123.072,130.000 123.405 C 130.000 123.738,129.841 124.323,129.647 124.705 C 129.452 125.087,129.062 125.895,128.779 126.500 C 128.269 127.591,128.231 127.600,124.332 127.600 C 120.667 127.600,120.400 127.654,120.400 128.400 C 120.400 128.840,120.220 129.200,120.000 129.200 C 119.780 129.200,119.600 129.434,119.600 129.720 C 119.600 130.456,118.659 132.393,118.300 132.397 C 118.135 132.399,118.000 132.940,118.000 133.600 C 118.000 134.260,117.820 134.800,117.600 134.800 C 117.380 134.800,117.200 135.160,117.200 135.600 C 117.200 136.324,116.933 136.400,114.400 136.400 C 112.800 136.400,111.600 136.571,111.600 136.800 C 111.600 137.020,111.313 137.200,110.963 137.200 C 110.612 137.200,110.231 137.560,110.116 138.000 C 110.001 138.440,109.748 138.800,109.553 138.800 C 109.359 138.800,109.200 140.354,109.200 142.253 C 109.200 146.420,110.059 147.599,113.099 147.600 L 114.797 147.600 114.899 202.700 L 115.000 257.800 123.300 257.908 L 131.600 258.016 131.600 261.328 C 131.600 266.176,131.991 266.793,135.071 266.797 C 138.218 266.801,138.800 265.918,138.800 261.139 L 138.800 258.000 153.200 258.000 L 167.600 258.000 167.600 261.829 C 167.600 266.405,167.855 266.800,170.800 266.800 C 173.745 266.800,174.000 266.405,174.000 261.829 L 174.000 258.000 182.400 258.000 L 190.800 258.000 190.800 202.800 L 190.800 147.600 192.618 147.600 C 195.688 147.600,196.400 146.516,196.400 141.845 C 196.400 137.200,195.726 136.400,191.810 136.400 C 189.477 136.400,188.400 135.840,188.400 134.629 C 188.400 134.283,188.220 134.000,188.000 134.000 C 187.780 134.000,187.600 133.645,187.600 133.212 C 187.600 132.779,187.240 131.783,186.800 131.000 C 186.360 130.217,186.000 129.388,186.000 129.159 C 186.000 127.977,184.799 127.600,181.029 127.600 C 177.467 127.600,177.200 127.544,177.200 126.800 C 177.200 126.360,177.020 126.000,176.800 126.000 C 176.580 126.000,176.400 125.640,176.400 125.200 C 176.400 124.760,176.220 124.400,176.000 124.400 C 175.780 124.400,175.600 124.040,175.600 123.600 C 175.600 123.160,175.420 122.800,175.200 122.800 C 174.980 122.800,174.794 122.395,174.787 121.900 C 174.756 119.721,174.318 119.600,166.425 119.600 L 159.137 119.600 157.669 118.096 C 155.575 115.952,152.871 114.915,152.200 116.000 M251.000 116.000 C 250.864 116.220,250.485 116.400,250.158 116.400 C 249.273 116.400,247.524 118.315,247.684 119.109 C 247.834 119.851,250.465 119.899,250.733 119.165 C 250.915 118.666,254.000 118.700,254.000 119.200 C 254.000 119.420,254.324 119.600,254.720 119.600 C 255.116 119.600,255.668 119.825,255.947 120.100 C 256.353 120.501,256.556 120.462,256.966 119.906 C 257.248 119.525,257.596 119.330,257.740 119.473 C 257.883 119.616,258.000 119.607,258.000 119.453 C 258.000 117.651,251.854 114.619,251.000 116.000 M345.067 115.867 C 344.029 116.904,345.552 118.323,347.157 117.814 C 347.904 117.577,348.523 116.256,348.090 115.823 C 347.776 115.510,345.389 115.544,345.067 115.867 M50.905 117.300 C 50.981 118.018,50.818 118.181,50.100 118.105 C 49.605 118.052,49.200 118.217,49.200 118.471 C 49.200 118.725,49.318 118.815,49.463 118.670 C 49.608 118.525,49.963 118.603,50.252 118.843 C 50.640 119.165,50.938 119.120,51.389 118.668 C 52.095 117.962,52.192 117.200,51.576 117.200 C 51.343 117.200,51.264 117.020,51.400 116.800 C 51.536 116.580,51.459 116.400,51.228 116.400 C 50.998 116.400,50.852 116.805,50.905 117.300 M349.301 116.603 C 349.466 116.786,349.303 117.265,348.939 117.668 C 348.361 118.306,348.355 118.400,348.891 118.400 C 349.645 118.400,350.103 116.903,349.462 116.536 C 349.208 116.391,349.135 116.421,349.301 116.603 M350.229 118.629 C 349.351 119.506,349.439 119.870,350.332 119.061 C 350.735 118.697,351.214 118.534,351.397 118.699 C 351.579 118.865,351.599 118.775,351.441 118.500 C 351.073 117.861,350.987 117.870,350.229 118.629 M154.800 119.200 C 154.800 119.420,154.080 119.600,153.200 119.600 C 152.320 119.600,151.600 119.420,151.600 119.200 C 151.600 118.980,152.320 118.800,153.200 118.800 C 154.080 118.800,154.800 118.980,154.800 119.200 M234.303 122.100 C 233.592 122.647,231.200 126.857,231.200 127.562 C 231.200 127.874,237.195 128.000,252.000 128.000 C 266.805 128.000,272.800 127.874,272.800 127.562 C 272.800 126.857,270.408 122.647,269.697 122.100 C 269.201 121.718,265.024 121.600,252.000 121.600 C 238.976 121.600,234.799 121.718,234.303 122.100 M36.107 123.391 C 35.417 124.176,34.000 126.745,34.000 127.212 C 34.000 127.457,41.210 127.600,53.600 127.600 C 69.420 127.600,73.200 127.500,73.200 127.080 C 73.200 126.344,72.259 124.407,71.900 124.403 C 71.735 124.401,71.600 124.040,71.600 123.600 C 71.600 122.551,37.025 122.347,36.107 123.391 M328.200 123.106 C 327.734 123.449,326.000 126.705,326.000 127.238 C 326.000 127.449,334.325 127.600,346.000 127.600 C 357.000 127.600,366.000 127.527,366.000 127.438 C 366.000 127.096,364.177 123.776,363.729 123.300 C 363.202 122.742,328.950 122.555,328.200 123.106 M307.709 164.400 C 307.709 165.390,307.787 165.795,307.882 165.300 C 307.978 164.805,307.978 163.995,307.882 163.500 C 307.787 163.005,307.709 163.410,307.709 164.400 M307.696 168.400 C 307.687 169.390,307.816 171.190,307.983 172.400 L 308.287 174.600 308.304 172.800 C 308.313 171.810,308.184 170.010,308.017 168.800 L 307.713 166.600 307.696 168.400 M160.376 183.360 C 163.383 184.783,166.236 187.731,167.807 191.041 C 168.836 193.211,169.417 194.000,169.982 194.000 C 171.356 194.000,171.209 194.632,169.160 197.541 C 166.722 201.002,167.021 201.000,164.693 197.563 C 162.758 194.708,162.625 194.000,164.024 194.000 C 166.588 194.000,162.747 186.902,158.692 184.149 C 154.691 181.432,155.498 181.054,160.376 183.360 M147.900 183.827 C 150.845 184.153,150.761 183.863,148.967 187.493 C 147.300 190.867,146.946 191.187,146.145 190.043 C 145.300 188.836,145.098 188.940,143.298 191.506 C 141.387 194.231,140.000 198.167,140.000 200.866 C 140.000 203.596,139.439 203.266,138.825 200.173 C 137.988 195.962,139.321 191.017,142.294 187.300 C 143.243 186.113,143.577 185.359,143.401 184.803 C 143.051 183.702,143.525 183.096,144.544 183.343 C 145.015 183.457,146.525 183.675,147.900 183.827 M151.200 206.120 C 151.200 206.406,150.984 206.856,150.720 207.120 C 148.609 209.231,157.700 209.630,162.700 207.645 C 165.312 206.609,165.395 207.160,162.900 208.972 C 159.337 211.559,152.660 212.840,149.331 211.574 C 148.365 211.207,148.111 211.270,147.493 212.033 C 146.785 212.907,145.663 212.338,145.613 211.081 C 145.606 210.905,145.240 210.016,144.800 209.106 C 143.242 205.881,143.467 205.600,147.600 205.600 C 150.287 205.600,151.200 205.732,151.200 206.120 M231.867 257.067 C 231.720 257.213,231.600 259.472,231.600 262.086 L 231.600 266.838 234.058 266.719 C 235.764 266.636,236.602 266.416,236.796 266.000 C 236.950 265.670,237.284 264.997,237.538 264.505 C 237.792 264.013,238.000 262.361,238.000 260.833 C 238.000 258.520,238.117 258.027,238.700 257.883 C 239.085 257.788,238.996 257.750,238.503 257.799 C 238.009 257.848,237.402 257.643,237.154 257.344 C 236.687 256.782,232.378 256.555,231.867 257.067 M267.248 257.162 C 266.477 257.650,266.604 265.461,267.395 266.252 C 267.723 266.580,268.799 266.799,270.071 266.797 C 272.765 266.793,273.200 266.032,273.200 261.320 C 273.200 258.149,273.240 257.999,274.100 257.982 C 274.732 257.970,274.524 257.793,273.400 257.388 C 271.625 256.749,268.104 256.619,267.248 257.162 M33.686 257.539 C 33.306 257.779,33.201 259.007,33.286 262.232 L 33.400 266.600 36.100 266.718 C 38.592 266.827,38.800 266.774,38.800 266.018 C 38.800 265.568,38.980 265.200,39.200 265.200 C 39.439 265.200,39.584 263.793,39.560 261.700 C 39.533 259.333,39.417 258.524,39.200 259.200 C 38.914 260.092,38.875 260.039,38.840 258.700 L 38.800 257.200 36.500 257.206 C 35.235 257.209,33.969 257.359,33.686 257.539 M69.100 257.988 C 68.552 258.631,68.400 259.551,68.400 262.233 C 68.400 266.364,68.706 266.800,71.600 266.800 C 74.466 266.800,74.800 266.344,74.800 262.429 C 74.800 260.653,74.633 259.200,74.428 259.200 C 74.223 259.200,73.998 258.795,73.928 258.300 C 73.742 256.993,70.147 256.761,69.100 257.988 M75.154 257.716 C 75.329 257.890,77.166 257.978,79.236 257.913 L 83.000 257.795 78.918 257.597 C 76.673 257.489,74.979 257.542,75.154 257.716 M326.116 258.000 C 326.001 258.440,325.748 258.800,325.553 258.800 C 325.359 258.800,325.200 260.343,325.200 262.229 C 325.200 266.364,325.505 266.800,328.400 266.800 C 331.225 266.800,331.600 266.319,331.600 262.690 C 331.600 258.320,330.933 257.200,328.333 257.200 C 326.662 257.200,326.290 257.334,326.116 258.000 M361.467 257.467 C 361.320 257.613,361.200 258.333,361.200 259.067 C 361.200 259.800,361.020 260.400,360.800 260.400 C 360.154 260.400,360.305 265.563,360.971 266.229 C 361.319 266.576,362.350 266.800,363.600 266.800 C 366.545 266.800,366.800 266.405,366.800 261.829 C 366.800 259.401,366.955 258.000,367.224 258.000 C 367.457 258.000,367.524 257.801,367.374 257.557 C 367.182 257.248,366.985 257.278,366.720 257.657 C 366.424 258.079,366.294 258.089,366.136 257.700 C 365.923 257.174,361.957 256.976,361.467 257.467 M61.900 257.893 C 62.835 257.977,64.365 257.977,65.300 257.893 C 66.235 257.809,65.470 257.740,63.600 257.740 C 61.730 257.740,60.965 257.809,61.900 257.893 M133.163 264.558 C 132.807 264.886,132.756 264.871,132.965 264.500 C 133.120 264.225,133.084 264.000,132.884 264.000 C 132.487 264.000,132.656 260.969,133.107 260.000 C 133.260 259.670,133.444 260.461,133.515 261.758 C 133.595 263.237,133.464 264.281,133.163 264.558 " stroke="none" fill="#9a1b1f" fill-rule="evenodd"></path><path id="path2" d="M36.183 120.027 C 36.038 120.262,35.687 120.365,35.403 120.257 C 35.120 120.148,34.516 120.406,34.061 120.829 C 33.606 121.253,33.046 121.600,32.817 121.600 C 32.588 121.600,32.400 121.960,32.400 122.400 C 32.400 122.840,32.220 123.200,32.000 123.200 C 31.780 123.200,31.600 123.560,31.600 124.000 C 31.600 124.440,31.420 124.800,31.200 124.800 C 30.980 124.800,30.800 125.070,30.800 125.400 C 30.800 125.730,30.641 126.000,30.447 126.000 C 30.252 126.000,29.999 126.360,29.884 126.800 C 29.695 127.525,29.338 127.600,26.099 127.600 C 21.727 127.600,21.987 127.361,19.033 134.079 C 18.193 135.989,16.476 137.200,14.607 137.200 C 13.231 137.200,10.322 139.255,10.892 139.825 C 11.028 139.961,94.705 140.122,97.100 139.991 C 97.265 139.982,97.114 139.755,96.765 139.487 C 96.416 139.219,95.915 138.595,95.651 138.100 C 95.133 137.127,90.345 136.718,89.800 137.600 C 89.639 137.860,80.058 138.000,62.364 138.000 C 31.540 138.000,33.989 138.323,35.792 134.495 C 37.732 130.378,34.849 130.779,62.318 130.809 C 75.617 130.824,86.595 130.738,86.715 130.618 C 86.835 130.498,86.621 130.400,86.240 130.400 C 85.728 130.400,85.613 130.190,85.800 129.600 C 85.946 129.141,85.872 128.800,85.627 128.800 C 85.392 128.800,85.200 128.514,85.200 128.164 C 85.200 127.613,84.631 127.546,81.000 127.664 C 77.214 127.787,76.799 127.731,76.800 127.100 C 76.800 126.715,76.620 126.400,76.400 126.400 C 76.180 126.400,76.000 125.860,76.000 125.200 C 76.000 124.540,75.799 124.000,75.553 124.000 C 75.304 124.000,75.199 123.647,75.316 123.200 C 75.457 122.660,75.328 122.400,74.920 122.400 C 74.542 122.400,74.402 122.171,74.548 121.791 C 75.051 120.480,73.386 119.600,70.400 119.600 C 68.800 119.600,67.600 119.771,67.600 120.000 C 67.600 120.549,65.342 120.503,63.731 119.920 C 62.603 119.513,62.329 119.538,61.902 120.092 C 61.626 120.450,60.950 120.822,60.400 120.917 C 59.850 121.013,62.248 121.116,65.729 121.146 C 70.212 121.184,72.195 121.346,72.529 121.700 C 73.209 122.422,75.600 127.214,75.600 127.856 C 75.600 128.501,32.222 128.683,31.824 128.039 C 31.607 127.687,33.141 124.482,34.575 122.294 L 35.292 121.200 42.346 121.136 C 46.226 121.101,48.805 120.999,48.077 120.909 C 47.349 120.819,46.655 120.488,46.534 120.173 C 46.260 119.459,36.618 119.324,36.183 120.027 M324.419 121.500 C 323.920 122.545,323.352 123.713,323.156 124.095 C 322.960 124.477,322.800 125.062,322.800 125.395 C 322.800 125.728,322.641 126.000,322.447 126.000 C 322.252 126.000,321.999 126.360,321.884 126.800 C 321.694 127.527,321.338 127.600,318.009 127.600 C 314.404 127.600,313.200 127.990,313.200 129.159 C 313.200 129.388,312.840 130.217,312.400 131.000 C 311.960 131.783,311.600 132.779,311.600 133.212 C 311.600 133.645,311.464 134.000,311.298 134.000 C 311.131 134.000,310.756 134.540,310.464 135.200 C 309.979 136.296,309.765 136.400,307.985 136.400 C 303.832 136.400,300.744 140.105,302.368 143.140 C 302.606 143.584,302.800 144.486,302.800 145.144 C 302.800 146.497,304.434 147.600,306.438 147.600 C 307.051 147.600,307.674 147.797,307.823 148.037 C 308.227 148.691,308.423 152.400,308.053 152.400 C 307.877 152.400,307.748 155.640,307.767 159.600 C 307.785 163.560,307.908 166.800,308.041 166.800 C 308.173 166.800,308.286 186.060,308.290 209.600 C 308.295 233.140,308.179 252.400,308.033 252.400 C 307.643 252.400,307.857 255.633,308.327 256.836 L 308.732 257.873 315.266 257.748 C 318.860 257.680,322.790 257.415,324.000 257.159 C 325.210 256.904,327.235 256.728,328.500 256.769 C 335.083 256.981,361.257 256.862,362.877 256.612 C 364.003 256.439,365.298 256.502,366.111 256.771 C 366.901 257.031,370.453 257.224,374.608 257.231 C 378.535 257.239,381.940 257.364,382.174 257.511 C 382.723 257.854,383.746 258.013,383.440 257.707 C 383.312 257.579,383.413 257.225,383.665 256.922 C 384.303 256.153,384.666 193.412,384.035 193.022 C 383.546 192.720,383.413 184.320,383.889 183.844 C 384.327 183.406,384.314 148.687,383.876 148.100 C 383.590 147.718,383.937 147.600,385.338 147.600 C 388.289 147.600,390.000 145.636,390.000 142.248 C 390.000 139.556,389.146 137.200,388.171 137.200 C 387.857 137.200,387.600 137.020,387.600 136.800 C 387.600 136.572,386.416 136.400,384.847 136.400 C 382.576 136.400,382.054 136.277,381.871 135.700 C 381.749 135.315,381.341 134.460,380.964 133.800 C 379.871 131.886,379.600 131.251,379.600 130.605 C 379.600 130.272,379.420 130.000,379.200 130.000 C 378.980 130.000,378.800 129.676,378.800 129.280 C 378.800 127.900,377.958 127.600,374.083 127.600 C 370.662 127.600,370.306 127.528,370.116 126.800 C 370.001 126.360,369.748 126.000,369.553 126.000 C 369.359 126.000,369.200 125.640,369.200 125.200 C 369.200 124.760,369.020 124.400,368.800 124.400 C 368.580 124.400,368.400 124.128,368.400 123.795 C 368.400 123.462,368.241 122.877,368.047 122.495 C 367.852 122.113,367.462 121.305,367.179 120.700 L 366.665 119.600 358.932 119.600 C 354.044 119.600,351.200 119.747,351.200 120.000 C 351.200 120.220,350.851 120.400,350.424 120.400 C 349.997 120.400,349.536 120.220,349.400 120.000 C 349.042 119.421,343.863 119.497,343.270 120.090 C 342.883 120.477,342.615 120.477,341.995 120.090 C 341.445 119.746,338.842 119.600,333.268 119.600 L 325.326 119.600 324.419 121.500 M52.558 120.388 C 52.361 120.577,51.750 120.813,51.200 120.912 C 50.650 121.010,51.820 121.100,53.800 121.111 C 55.991 121.123,57.009 121.014,56.400 120.831 C 54.365 120.221,52.907 120.053,52.558 120.388 M364.556 122.574 C 364.800 122.999,365.495 124.160,366.100 125.152 C 366.705 126.145,367.200 127.191,367.200 127.478 C 367.200 127.901,363.163 128.000,346.000 128.000 C 330.905 128.000,324.800 127.874,324.800 127.562 C 324.800 127.095,326.997 122.940,327.690 122.096 C 328.481 121.134,363.995 121.594,364.556 122.574 M16.333 199.500 C 16.297 228.045,16.242 252.210,16.212 253.200 C 16.182 254.190,16.235 255.495,16.329 256.100 L 16.500 257.200 23.980 257.200 C 31.282 257.200,31.481 257.178,32.330 256.274 L 33.200 255.348 33.200 201.474 L 33.200 147.600 24.800 147.600 L 16.400 147.600 16.333 199.500 M56.227 181.506 C 55.870 181.863,55.962 182.400,56.380 182.400 C 56.589 182.400,57.549 182.933,58.514 183.584 C 62.852 186.511,67.291 193.600,64.787 193.600 C 63.342 193.600,63.462 194.732,65.188 197.382 C 67.858 201.479,67.848 201.480,70.914 196.852 C 72.429 194.565,72.464 193.600,71.031 193.600 C 70.335 193.600,69.950 193.123,69.216 191.353 C 68.000 188.420,64.322 184.482,61.527 183.120 C 59.116 181.945,56.565 181.169,56.227 181.506 M61.649 183.658 C 65.286 185.597,67.808 188.686,69.600 193.399 C 69.867 194.103,70.280 194.400,70.993 194.400 C 71.997 194.400,71.988 194.427,70.145 197.200 C 67.882 200.602,67.800 200.609,65.800 197.532 C 63.791 194.442,63.776 194.400,64.687 194.400 C 65.924 194.400,66.398 193.651,65.919 192.451 C 64.325 188.461,62.460 185.969,59.200 183.479 C 57.200 181.950,58.643 182.056,61.649 183.658 M353.503 183.427 C 356.676 185.008,361.600 190.858,361.600 193.046 C 361.600 193.360,362.095 193.830,362.700 194.090 C 363.305 194.349,363.858 194.598,363.928 194.642 C 364.285 194.866,360.514 199.982,360.000 199.971 C 359.670 199.965,358.626 198.769,357.681 197.315 C 355.926 194.616,355.930 194.022,357.700 194.006 C 358.527 193.999,358.542 193.841,357.894 191.989 C 356.831 188.953,352.151 183.200,350.744 183.200 C 350.555 183.200,350.400 183.020,350.400 182.800 C 350.400 182.151,351.312 182.335,353.503 183.427 M43.790 184.355 C 44.013 185.368,43.868 185.897,43.092 186.916 C 40.044 190.915,38.757 195.838,39.570 200.386 C 40.034 202.985,40.602 203.916,40.981 202.700 C 41.317 201.625,41.547 197.014,41.216 198.000 C 41.031 198.550,40.862 199.585,40.840 200.300 C 40.775 202.410,40.131 201.785,39.882 199.370 C 39.433 195.021,40.592 191.076,43.391 187.429 C 44.685 185.742,44.834 185.347,44.424 184.690 C 43.741 183.596,43.896 183.557,47.740 183.852 C 51.169 184.116,51.783 184.457,50.727 185.513 C 50.466 185.774,50.370 186.103,50.512 186.245 C 50.654 186.387,50.988 186.025,51.254 185.441 C 51.948 183.918,51.489 183.679,47.255 183.360 L 43.510 183.078 43.790 184.355 M341.900 183.997 C 342.661 183.999,343.200 184.204,343.200 184.492 C 343.200 185.414,340.602 190.380,340.114 190.390 C 339.847 190.395,339.425 190.021,339.177 189.557 C 338.093 187.531,334.168 193.669,333.207 198.896 C 332.556 202.437,332.001 201.970,331.996 197.876 C 331.991 193.871,333.056 190.530,335.273 187.602 C 336.490 185.994,336.754 185.355,336.545 184.524 L 336.282 183.475 338.441 183.734 C 339.628 183.876,341.185 183.995,341.900 183.997 M49.218 188.561 C 48.357 190.451,47.749 190.853,47.345 189.800 C 46.957 188.790,45.703 189.130,44.759 190.500 L 43.864 191.800 45.118 190.638 L 46.372 189.477 47.086 190.336 C 47.488 190.820,47.995 191.065,48.246 190.898 C 48.832 190.507,50.514 187.180,50.256 186.922 C 50.146 186.812,49.678 187.550,49.218 188.561 M43.121 192.900 C 42.382 194.065,41.448 196.385,41.646 196.565 C 41.731 196.642,42.285 195.646,42.878 194.352 C 44.003 191.896,44.091 191.371,43.121 192.900 M46.700 205.496 C 43.970 205.667,43.965 205.685,45.640 209.658 C 47.204 213.369,47.462 213.638,48.379 212.517 C 48.958 211.809,49.407 211.669,50.650 211.810 L 52.200 211.986 50.680 211.549 C 49.420 211.186,49.040 211.221,48.449 211.756 C 47.432 212.676,47.388 212.641,46.384 210.100 C 45.884 208.835,45.323 207.629,45.138 207.420 C 44.279 206.454,44.924 206.105,48.043 205.845 C 50.274 205.658,51.461 205.718,51.843 206.036 C 52.183 206.318,52.400 206.340,52.400 206.092 C 52.400 205.544,51.368 205.183,50.067 205.276 C 49.480 205.317,47.965 205.416,46.700 205.496 M344.000 206.320 C 344.000 206.716,343.812 207.228,343.583 207.457 C 342.611 208.429,344.427 208.991,348.556 208.995 C 352.346 209.000,353.662 208.744,356.299 207.492 C 357.927 206.720,357.708 207.517,355.937 208.810 C 352.160 211.570,347.123 212.618,342.973 211.508 C 341.335 211.070,341.092 211.092,340.747 211.708 C 340.336 212.443,339.200 212.666,339.200 212.012 C 339.200 211.798,338.750 210.640,338.200 209.437 C 336.576 205.888,336.688 205.759,341.500 205.654 C 343.661 205.607,344.000 205.698,344.000 206.320 M63.000 207.518 C 59.317 209.094,51.138 208.981,51.759 207.362 C 51.891 207.020,51.820 206.864,51.595 207.003 C 51.378 207.137,51.200 207.503,51.200 207.816 C 51.200 209.617,61.839 209.337,64.310 207.471 C 64.590 207.259,64.930 207.197,65.066 207.333 C 65.433 207.700,63.642 209.135,61.667 210.057 C 60.713 210.503,60.022 210.955,60.130 211.063 C 60.641 211.574,66.400 207.634,66.400 206.773 C 66.400 206.218,65.659 206.380,63.000 207.518 M57.400 211.600 L 56.600 211.944 57.400 211.944 C 57.840 211.944,58.560 211.789,59.000 211.600 L 59.800 211.256 59.000 211.256 C 58.560 211.256,57.840 211.411,57.400 211.600 M53.505 212.283 C 54.002 212.379,54.722 212.375,55.105 212.275 C 55.487 212.175,55.080 212.096,54.200 212.101 C 53.320 212.105,53.007 212.187,53.505 212.283 " stroke="none" fill="#1aa1ad" fill-rule="evenodd"></path><path id="path3" d="M234.000 120.000 C 234.000 120.231,235.275 120.400,237.024 120.400 C 238.937 120.400,239.956 120.253,239.800 120.000 C 239.664 119.780,238.303 119.600,236.776 119.600 C 235.192 119.600,234.000 119.772,234.000 120.000 M260.800 120.000 C 260.800 120.244,262.608 120.400,265.424 120.400 C 268.404 120.400,269.959 120.258,269.800 120.000 C 269.660 119.773,267.663 119.600,265.176 119.600 C 262.525 119.600,260.800 119.758,260.800 120.000 M59.200 183.479 C 62.460 185.969,64.325 188.461,65.919 192.451 C 66.398 193.651,65.924 194.400,64.687 194.400 C 63.776 194.400,63.791 194.442,65.800 197.532 C 67.800 200.609,67.882 200.602,70.145 197.200 C 71.988 194.427,71.997 194.400,70.993 194.400 C 70.280 194.400,69.867 194.103,69.600 193.399 C 67.808 188.686,65.286 185.597,61.649 183.658 C 58.643 182.056,57.200 181.950,59.200 183.479 M160.105 185.189 C 164.356 189.172,166.460 193.991,164.096 194.328 C 162.918 194.496,162.925 194.523,164.900 197.464 C 166.897 200.438,166.842 200.439,169.039 197.378 C 171.014 194.628,171.086 194.400,169.983 194.400 C 169.364 194.400,168.883 193.767,167.990 191.777 C 166.515 188.489,163.167 184.905,160.227 183.466 C 156.893 181.833,156.870 182.157,160.105 185.189 M256.400 182.732 C 256.400 182.915,256.869 183.316,257.442 183.623 C 260.951 185.500,266.020 194.000,263.631 194.000 C 262.168 194.000,262.271 195.054,263.982 197.574 C 266.086 200.672,266.270 200.636,268.943 196.607 C 270.209 194.699,270.245 194.400,269.205 194.400 C 268.609 194.400,268.053 193.646,266.979 191.382 C 264.753 186.691,256.400 179.862,256.400 182.732 M350.400 182.800 C 350.400 183.020,350.555 183.200,350.744 183.200 C 352.151 183.200,356.831 188.953,357.894 191.989 C 358.542 193.841,358.527 193.999,357.700 194.006 C 355.930 194.022,355.926 194.616,357.681 197.315 C 358.626 198.769,359.670 199.965,360.000 199.971 C 360.514 199.982,364.285 194.866,363.928 194.642 C 363.858 194.598,363.305 194.349,362.700 194.090 C 362.095 193.830,361.600 193.360,361.600 193.046 C 361.600 191.952,359.785 189.037,357.682 186.753 C 355.099 183.950,350.400 181.398,350.400 182.800 M44.000 183.785 C 44.000 183.909,44.203 184.336,44.452 184.734 C 44.826 185.334,44.644 185.795,43.391 187.429 C 40.592 191.076,39.433 195.021,39.882 199.370 C 40.164 202.101,40.612 202.244,40.914 199.700 C 41.575 194.136,46.248 186.942,47.345 189.800 C 47.471 190.130,47.745 190.400,47.953 190.400 C 48.346 190.400,51.425 184.476,51.154 184.240 C 50.870 183.993,44.000 183.555,44.000 183.785 M143.478 183.856 C 143.340 183.993,143.400 184.427,143.610 184.819 C 143.908 185.376,143.681 185.906,142.580 187.224 C 139.833 190.512,138.451 195.146,138.973 199.321 C 139.308 202.003,140.000 202.366,140.000 199.860 C 140.000 196.879,141.549 193.138,143.940 190.345 L 145.350 188.698 146.091 189.613 C 147.005 190.742,147.234 190.539,148.999 187.031 C 149.885 185.269,150.184 184.305,149.873 184.210 C 148.867 183.905,143.714 183.619,143.478 183.856 M242.550 184.545 C 242.751 185.345,242.494 186.024,241.426 187.511 C 238.655 191.367,237.618 195.281,238.178 199.763 C 238.519 202.495,239.200 202.715,239.200 200.094 C 239.200 196.984,241.453 191.787,243.719 189.671 L 244.714 188.742 245.325 189.614 C 246.136 190.772,246.433 190.519,248.132 187.226 C 249.808 183.976,249.951 184.173,245.645 183.799 L 242.290 183.507 242.550 184.545 M336.545 184.524 C 336.754 185.355,336.490 185.994,335.273 187.602 C 333.056 190.530,331.991 193.871,331.996 197.876 C 332.001 201.970,332.556 202.437,333.207 198.896 C 334.168 193.669,338.093 187.531,339.177 189.557 C 339.425 190.021,339.847 190.395,340.114 190.390 C 340.602 190.380,343.200 185.414,343.200 184.492 C 343.200 184.204,342.661 183.999,341.900 183.997 C 341.185 183.995,339.628 183.876,338.441 183.734 L 336.282 183.475 336.545 184.524 M46.900 205.895 C 44.863 206.037,44.324 206.504,45.138 207.420 C 45.323 207.629,45.884 208.835,46.384 210.100 C 47.389 212.644,47.431 212.677,48.456 211.749 C 49.066 211.198,49.447 211.167,50.965 211.549 C 55.186 212.612,61.084 211.228,64.357 208.405 C 65.323 207.571,65.300 206.834,64.327 207.457 C 60.541 209.878,49.984 209.663,51.514 207.196 C 51.796 206.740,51.920 206.195,51.790 205.984 C 51.557 205.607,51.126 205.599,46.900 205.895 M243.900 205.876 C 243.126 206.078,243.003 206.844,243.574 207.905 C 243.780 208.287,244.352 209.546,244.846 210.702 L 245.744 212.804 246.667 211.937 C 247.498 211.156,247.743 211.116,249.141 211.535 C 252.796 212.630,258.188 211.521,261.736 208.945 C 263.669 207.542,264.002 206.684,262.299 207.492 C 259.811 208.673,258.313 208.991,255.200 208.995 C 250.363 209.001,247.932 207.878,250.007 206.596 C 251.305 205.793,246.421 205.217,243.900 205.876 M338.100 205.882 C 336.949 206.104,336.967 206.742,338.200 209.437 C 338.750 210.640,339.200 211.798,339.200 212.012 C 339.200 212.666,340.336 212.443,340.747 211.708 C 341.092 211.092,341.335 211.070,342.973 211.508 C 347.123 212.618,352.160 211.570,355.937 208.810 C 357.708 207.517,357.927 206.720,356.299 207.492 C 353.662 208.744,352.346 209.000,348.556 208.995 C 344.427 208.991,342.611 208.429,343.583 207.457 C 345.135 205.905,342.262 205.081,338.100 205.882 M144.000 206.332 C 144.000 206.760,145.662 210.759,146.269 211.792 C 146.723 212.564,146.755 212.565,147.555 211.841 C 148.275 211.190,148.594 211.154,150.165 211.549 C 153.054 212.277,156.141 211.963,159.800 210.570 C 160.944 210.134,164.090 207.957,163.879 207.746 C 163.782 207.648,162.914 207.855,161.951 208.205 C 157.284 209.901,150.563 209.347,150.659 207.273 L 150.718 206.000 147.359 206.000 C 145.512 206.000,144.000 206.149,144.000 206.332 " stroke="none" fill="#eae9e4" fill-rule="evenodd"></path><path id="path4" d="M50.431 117.631 C 49.754 118.308,49.200 119.028,49.200 119.231 C 49.200 119.434,48.555 119.600,47.767 119.600 C 45.927 119.600,46.118 120.501,48.032 120.847 C 48.784 120.983,46.226 121.118,42.346 121.147 L 35.292 121.200 34.575 122.294 C 33.141 124.482,31.607 127.687,31.824 128.039 C 32.222 128.683,75.600 128.501,75.600 127.856 C 75.600 127.214,73.209 122.422,72.529 121.700 C 72.194 121.345,70.220 121.186,65.729 121.153 C 62.248 121.127,59.925 120.992,60.567 120.853 C 62.091 120.523,62.423 119.600,61.017 119.600 C 60.313 119.600,59.467 119.073,58.446 118.000 C 57.609 117.120,56.716 116.400,56.462 116.400 C 55.866 116.400,55.858 117.486,56.453 117.684 C 56.727 117.776,56.796 118.183,56.626 118.718 C 56.329 119.653,52.400 120.102,52.400 119.200 C 52.400 118.766,53.177 118.631,54.900 118.765 C 55.689 118.827,56.000 118.665,56.000 118.194 C 56.000 117.674,55.753 117.591,54.820 117.796 C 53.912 117.995,53.475 117.864,52.931 117.227 C 52.011 116.153,51.889 116.173,50.431 117.631 M343.600 116.800 C 343.600 117.020,343.324 117.200,342.987 117.200 C 342.651 117.200,342.259 117.515,342.117 117.900 C 341.975 118.285,341.677 118.721,341.455 118.870 C 341.004 119.171,341.833 120.400,342.487 120.400 C 342.701 120.400,343.431 120.005,344.109 119.523 C 345.648 118.426,347.649 118.442,348.849 119.560 C 350.428 121.031,352.360 120.088,351.124 118.449 C 349.789 116.679,348.000 115.833,348.000 116.973 C 348.000 117.683,346.672 118.140,345.600 117.800 C 345.160 117.660,344.800 117.288,344.800 116.973 C 344.800 116.658,344.530 116.400,344.200 116.400 C 343.870 116.400,343.600 116.580,343.600 116.800 M52.000 117.629 C 52.000 118.283,50.856 119.282,50.418 119.011 C 50.192 118.871,50.317 118.455,50.715 118.019 C 51.499 117.158,52.000 117.006,52.000 117.629 M349.600 117.800 C 349.600 118.130,349.308 118.400,348.951 118.400 C 348.420 118.400,348.392 118.291,348.800 117.800 C 349.074 117.470,349.366 117.200,349.449 117.200 C 349.532 117.200,349.600 117.470,349.600 117.800 M32.926 120.100 C 31.658 122.072,31.321 123.200,32.000 123.200 C 32.220 123.200,32.400 122.840,32.400 122.400 C 32.400 121.960,32.588 121.600,32.817 121.600 C 33.046 121.600,33.606 121.253,34.061 120.829 C 34.516 120.406,35.120 120.148,35.403 120.257 C 35.687 120.365,36.038 120.262,36.183 120.027 C 36.567 119.407,33.325 119.479,32.926 120.100 M64.000 120.000 C 64.792 120.512,67.600 120.512,67.600 120.000 C 67.600 119.780,66.655 119.603,65.500 119.606 C 63.997 119.611,63.570 119.722,64.000 120.000 M73.600 120.013 C 73.600 120.239,73.875 120.531,74.212 120.660 C 74.598 120.808,74.736 121.172,74.585 121.647 C 74.425 122.152,74.540 122.400,74.936 122.400 C 75.328 122.400,75.455 122.667,75.316 123.200 C 75.199 123.647,75.304 124.000,75.553 124.000 C 75.799 124.000,76.000 124.540,76.000 125.200 C 76.000 125.860,76.180 126.400,76.400 126.400 C 76.620 126.400,76.800 126.775,76.800 127.233 C 76.800 127.721,77.007 127.998,77.300 127.902 C 77.922 127.697,78.214 126.000,77.628 126.000 C 77.393 126.000,77.200 125.640,77.200 125.200 C 77.200 124.760,77.020 124.400,76.800 124.400 C 76.580 124.400,76.400 124.128,76.400 123.795 C 76.400 123.462,76.241 122.877,76.047 122.495 C 75.852 122.113,75.462 121.305,75.179 120.700 C 74.683 119.639,73.600 119.167,73.600 120.013 M56.400 120.831 C 57.009 121.014,55.991 121.123,53.800 121.111 C 51.820 121.100,50.650 121.010,51.200 120.912 C 51.750 120.813,52.361 120.577,52.558 120.388 C 52.907 120.053,54.365 120.221,56.400 120.831 M327.690 122.096 C 326.997 122.940,324.800 127.095,324.800 127.562 C 324.800 127.874,330.905 128.000,346.000 128.000 C 363.163 128.000,367.200 127.901,367.200 127.478 C 367.200 127.191,366.705 126.145,366.100 125.152 C 365.495 124.160,364.800 122.999,364.556 122.574 C 363.995 121.594,328.481 121.134,327.690 122.096 M71.600 123.600 C 71.600 124.040,71.735 124.401,71.900 124.403 C 72.259 124.407,73.200 126.344,73.200 127.080 C 73.200 127.500,69.420 127.600,53.600 127.600 C 41.210 127.600,34.000 127.457,34.000 127.212 C 34.000 126.745,35.417 124.176,36.107 123.391 C 37.025 122.347,71.600 122.551,71.600 123.600 M363.729 123.300 C 364.177 123.776,366.000 127.096,366.000 127.438 C 366.000 127.527,357.000 127.600,346.000 127.600 C 334.325 127.600,326.000 127.449,326.000 127.238 C 326.000 126.705,327.734 123.449,328.200 123.106 C 328.950 122.555,363.202 122.742,363.729 123.300 M30.646 124.300 C 30.511 124.685,30.295 125.225,30.166 125.500 C 30.038 125.775,30.128 126.000,30.367 126.000 C 30.605 126.000,30.800 125.730,30.800 125.400 C 30.800 125.070,30.980 124.800,31.200 124.800 C 31.420 124.800,31.600 124.530,31.600 124.200 C 31.600 123.375,30.948 123.444,30.646 124.300 M85.200 128.200 C 85.200 128.530,85.392 128.800,85.627 128.800 C 85.872 128.800,85.946 129.141,85.800 129.600 C 85.613 130.190,85.728 130.400,86.240 130.400 C 86.621 130.400,86.835 130.498,86.715 130.618 C 86.595 130.738,75.617 130.824,62.318 130.809 C 34.849 130.779,37.732 130.378,35.792 134.495 C 33.989 138.323,31.540 138.000,62.364 138.000 C 80.058 138.000,89.639 137.860,89.800 137.600 C 90.345 136.718,95.133 137.127,95.651 138.100 C 95.915 138.595,96.416 139.219,96.765 139.487 C 97.114 139.755,97.265 139.982,97.100 139.991 C 94.705 140.122,11.028 139.961,10.892 139.825 C 10.282 139.216,13.241 137.200,14.746 137.200 C 15.630 137.200,16.464 137.020,16.600 136.800 C 17.329 135.620,12.876 136.423,11.450 137.728 C 9.988 139.068,9.126 145.200,10.400 145.200 C 10.620 145.200,10.800 145.449,10.800 145.754 C 10.800 146.610,12.616 147.600,14.186 147.600 L 15.600 147.600 15.613 202.100 C 15.623 246.354,15.724 256.729,16.149 257.289 C 16.695 258.009,29.184 258.076,36.100 257.397 L 38.800 257.132 38.836 258.666 L 38.872 260.200 39.223 259.000 L 39.574 257.800 53.887 257.761 C 63.842 257.734,68.287 257.855,68.484 258.159 C 68.672 258.448,68.947 258.352,69.297 257.873 C 70.134 256.728,73.752 257.062,73.928 258.300 C 73.998 258.795,74.223 259.200,74.428 259.200 C 74.633 259.200,74.800 258.795,74.800 258.300 C 74.800 257.403,74.819 257.401,79.700 257.624 C 82.395 257.747,86.130 257.837,88.000 257.824 L 91.400 257.800 91.501 202.700 L 91.603 147.600 93.418 147.600 C 95.378 147.600,96.444 146.907,97.441 144.987 C 98.084 143.746,98.194 140.167,97.600 139.800 C 97.380 139.664,97.200 139.281,97.200 138.948 C 97.200 137.579,94.967 136.400,92.377 136.400 C 90.281 136.400,89.200 135.797,89.200 134.629 C 89.200 134.283,89.020 134.000,88.800 134.000 C 88.580 134.000,88.400 133.460,88.400 132.800 C 88.400 132.140,88.220 131.600,88.000 131.600 C 87.780 131.600,87.600 131.240,87.600 130.800 C 87.600 130.360,87.420 130.000,87.200 130.000 C 86.980 130.000,86.800 129.717,86.800 129.371 C 86.800 128.765,85.898 127.600,85.429 127.600 C 85.303 127.600,85.200 127.870,85.200 128.200 M387.994 146.818 C 387.447 147.239,387.180 147.580,387.400 147.578 C 387.929 147.573,389.391 146.458,389.165 146.231 C 389.068 146.134,388.541 146.398,387.994 146.818 M33.200 201.474 L 33.200 255.348 32.330 256.274 C 31.481 257.178,31.282 257.200,23.980 257.200 L 16.500 257.200 16.329 256.100 C 16.235 255.495,16.182 254.190,16.212 253.200 C 16.242 252.210,16.297 228.045,16.333 199.500 L 16.400 147.600 24.800 147.600 L 33.200 147.600 33.200 201.474 M384.120 156.000 C 384.120 157.210,384.195 157.705,384.287 157.100 C 384.378 156.495,384.378 155.505,384.287 154.900 C 384.195 154.295,384.120 154.790,384.120 156.000 M384.166 169.200 C 384.166 173.270,384.225 174.935,384.298 172.900 C 384.371 170.865,384.371 167.535,384.298 165.500 C 384.225 163.465,384.166 165.130,384.166 169.200 M308.114 168.600 C 308.117 169.700,308.195 170.103,308.287 169.495 C 308.379 168.886,308.377 167.986,308.282 167.495 C 308.187 167.003,308.111 167.500,308.114 168.600 M61.527 183.120 C 64.322 184.482,68.000 188.420,69.216 191.353 C 69.950 193.123,70.335 193.600,71.031 193.600 C 72.464 193.600,72.429 194.565,70.914 196.852 C 67.848 201.480,67.858 201.479,65.188 197.382 C 63.462 194.732,63.342 193.600,64.787 193.600 C 67.291 193.600,62.852 186.511,58.514 183.584 C 57.549 182.933,56.589 182.400,56.380 182.400 C 55.962 182.400,55.870 181.863,56.227 181.506 C 56.565 181.169,59.116 181.945,61.527 183.120 M51.364 184.005 C 51.797 184.437,48.906 190.674,48.137 190.969 C 47.854 191.078,47.350 190.778,47.017 190.303 L 46.412 189.439 45.250 190.552 C 43.477 192.251,41.694 196.523,41.321 199.968 C 40.899 203.867,40.222 204.037,39.573 200.406 C 38.757 195.837,40.039 190.923,43.092 186.916 C 43.868 185.897,44.013 185.368,43.790 184.355 L 43.510 183.078 47.255 183.360 C 49.315 183.516,51.164 183.806,51.364 184.005 M383.867 183.867 C 383.435 184.298,383.558 192.727,384.000 193.000 C 384.258 193.160,384.400 191.537,384.400 188.424 C 384.400 185.771,384.340 183.600,384.267 183.600 C 384.193 183.600,384.013 183.720,383.867 183.867 M51.941 205.555 C 52.375 205.830,52.387 206.077,52.000 206.800 C 50.732 209.169,58.089 209.510,63.527 207.334 C 66.620 206.097,67.119 206.422,65.000 208.292 C 61.571 211.318,56.311 212.790,51.624 212.035 C 49.256 211.653,49.061 211.682,48.381 212.515 C 47.462 213.638,47.205 213.371,45.640 209.658 C 43.800 205.293,43.401 205.676,50.200 205.282 C 50.860 205.244,51.644 205.367,51.941 205.555 M384.163 240.400 C 384.163 244.030,384.223 245.515,384.298 243.700 C 384.372 241.885,384.372 238.915,384.298 237.100 C 384.223 235.285,384.163 236.770,384.163 240.400 M384.109 250.000 C 384.109 250.990,384.187 251.395,384.282 250.900 C 384.378 250.405,384.378 249.595,384.282 249.100 C 384.187 248.605,384.109 249.010,384.109 250.000 M325.955 256.784 C 325.600 257.001,323.620 257.339,321.555 257.535 L 317.800 257.891 321.500 257.946 C 323.664 257.977,325.200 258.166,325.200 258.400 C 325.200 259.124,325.902 258.817,326.116 258.000 C 326.480 256.606,330.274 256.846,330.873 258.300 C 331.231 259.169,331.361 259.253,331.492 258.700 C 331.647 258.050,332.643 258.000,345.397 258.000 C 352.952 258.000,359.419 257.891,359.767 257.757 C 360.272 257.563,360.400 257.806,360.400 258.957 C 360.400 260.866,361.117 260.819,361.276 258.900 L 361.400 257.400 363.700 257.280 C 365.116 257.206,366.000 257.322,366.000 257.580 C 366.000 257.811,366.180 258.000,366.400 258.000 C 366.620 258.000,366.800 257.738,366.800 257.418 C 366.800 256.659,364.451 256.221,362.502 256.617 C 360.720 256.980,331.977 256.997,328.800 256.638 C 327.572 256.499,326.315 256.563,325.955 256.784 M367.406 257.609 C 367.549 257.841,370.661 258.000,375.047 258.000 C 379.609 258.000,382.357 257.855,382.213 257.621 C 382.079 257.404,378.795 257.236,374.571 257.230 C 369.848 257.223,367.252 257.360,367.406 257.609 M312.900 257.876 C 313.285 257.976,313.915 257.976,314.300 257.876 C 314.685 257.775,314.370 257.693,313.600 257.693 C 312.830 257.693,312.515 257.775,312.900 257.876 M133.107 260.000 C 132.656 260.969,132.487 264.000,132.884 264.000 C 133.084 264.000,133.120 264.225,132.965 264.500 C 132.756 264.871,132.807 264.886,133.163 264.558 C 133.464 264.281,133.595 263.237,133.515 261.758 C 133.444 260.461,133.260 259.670,133.107 260.000 " stroke="none" fill="#1463a3" fill-rule="evenodd"></path></g></svg>