<svg id="Capa_1" enable-background="new 0 0 511.362 511.362" height="512" viewBox="0 0 511.362 511.362" width="512" xmlns="http://www.w3.org/2000/svg"><path id="XMLID_1289_" d="m459.988 132.73 51.374-51.374-81.356-81.356-51.374 51.374-16.224-4.437c-31.321-8.564-65.04.379-87.998 23.338-7.211 7.21-13.115 15.525-17.547 24.712-9.583 19.868-22.352 37.85-37.949 53.448l-118.796 118.796c-10.211 10.211-21.983 18.57-34.99 24.844-16.047 7.741-30.572 18.054-43.169 30.652l-8.286 8.286c-18.23 18.23-18.23 47.892 0 66.122l100.554 100.554c9.115 9.115 21.088 13.673 33.061 13.673s23.946-4.558 33.061-13.673l8.286-8.286c12.598-12.598 22.911-27.122 30.652-43.169 6.274-13.006 14.632-24.778 24.844-34.99l118.819-118.819c15.593-15.587 33.567-28.348 53.425-37.926 9.186-4.431 17.5-10.335 24.711-17.546 22.96-22.959 31.903-56.679 23.338-87.999zm-29.982-90.303 38.929 38.929-25.714 25.714-38.929-38.929zm-172.705 313.219-101.586-101.585 63.854-63.854 101.586 101.585zm-34.384 34.385c-12.599 12.598-22.911 27.123-30.652 43.169-6.274 13.007-14.633 24.779-24.844 34.99l-8.286 8.286c-6.533 6.532-17.163 6.532-23.696 0l-100.553-100.554c-6.533-6.533-6.533-17.163 0-23.696l8.286-8.286c10.211-10.211 21.984-18.57 34.991-24.844 16.047-7.741 30.571-18.053 43.169-30.651l13.17-13.17 101.586 101.585zm196.956-174.292c-4.825 4.825-10.388 8.774-16.533 11.739-22.629 10.915-43.132 25.42-60.964 43.107l-101.6-101.6c17.688-17.832 32.193-38.335 43.108-60.964 2.965-6.146 6.915-11.709 11.738-16.533h.001c11.507-11.507 27.053-17.751 42.938-17.751 5.319 0 10.677.701 15.934 2.138l20.789 5.685 54.517 54.517 5.685 20.789c5.73 20.954-.253 43.513-15.613 58.873z"/></svg>